PathFileType	4	(X/Y/Z)	Trial12_Gait_LowerBody_markers_cropped.trc
DataRate	CameraRate	NumFrames	NumMarkers	Units	OrigDataRate	OrigDataStartFrame	OrigNumFrames
200	200	5	27	m	200	37	101
Frame#	Time	R_ASIS			L_ASIS			Sacral			L_Thigh_Superior			L_Thigh_Posterior			L_Thigh_Inferior			L_Thigh_Lateral			L_Shank_Posterior			L_Shank_Superior			L_Shank_Lateral			L_Shank_Inferior			L_Midfoot_Superior			L_Heel			L_Midfoot_Lateral			L_Toe			R_Thigh_Posterior			R_Thigh_Superior			R_Thigh_Lateral			R_Thigh_Inferior			R_Shank_Posterior			R_Shank_Superior			R_Shank_Lateral			R_Shank_Inferior			R_Midfoot_Superior			R_Heel			R_Midfoot_Lateral			R_Toe
		X1	Y1	Z1	X2	Y2	Z2	X3	Y3	Z3	X4	Y4	Z4	X5	Y5	Z5	X6	Y6	Z6	X7	Y7	Z7	X8	Y8	Z8	X9	Y9	Z9	X10	Y10	Z10	X11	Y11	Z11	X12	Y12	Z12	X13	Y13	Z13	X14	Y14	Z14	X15	Y15	Z15	X16	Y16	Z16	X17	Y17	Z17	X18	Y18	Z18	X19	Y19	Z19	X20	Y20	Z20	X21	Y21	Z21	X22	Y22	Z22	X23	Y23	Z23	X24	Y24	Z24	X25	Y25	Z25	X26	Y26	Z26	X27	Y27	Z27

38	   0.185	    0.80574746539264	    0.97939715216734	    0.62981543165677	    0.80506974844439	    0.97849417129261	    0.38003708139450	    0.61114704015442	    1.03893314744135	    0.51322508039621	    0.85568530059914	    0.77753759572259	    0.30984099290372	    0.79257427032999	    0.73638495173074	    0.30731984692058	    0.90376909706423	    0.69661712842598	    0.32252738838019	    0.83444827853727	    0.65742637468426	    0.31821124019005	    0.84229155765927	    0.42779806329865	    0.33192890725123	    0.91075682149306	    0.39593837158406	    0.33696949841627	    0.82501632262916	    0.35871101726300	    0.32861986677652	    0.88878570313382	    0.34207180235188	    0.33420518343005	    0.89870332614332	    0.12188661926949	    0.39777185172029	    0.72596046119723	    0.09772414763814	    0.44153612880903	    0.81298714092083	    0.07042500675284	    0.36236118246880	    1.01111988127580	    0.06038148455826	    0.37780153012607	    0.70929981498193	    0.77160787281669	    0.69170533602713	    0.78386601480410	    0.76738973762240	    0.67741281966287	    0.70730962913137	    0.67236868221374	    0.68224706612055	    0.77773141436312	    0.67176564068820	    0.67216791424702	    0.62307143016848	    0.36206542562450	    0.66372262475163	    0.69572783470845	    0.33991687349495	    0.65332559652996	    0.60986939147190	    0.29344714455666	    0.64860007720328	    0.68088041978918	    0.28323399460364	    0.63957971094547	    0.68524980645684	    0.08982680155896	    0.56525836031620	    0.51190572205664	    0.06480193360684	    0.53577235665769	    0.60485765941367	    0.02322940940128	    0.60709858426350	    0.80446544387954	    0.03299447405401	    0.57203050090431
39	   0.190	    0.80457614292157	    0.97893104654446	    0.62959386749130	    0.80472129927350	    0.97839337548173	    0.37981425584582	    0.61038247690232	    1.03881310320990	    0.51243195678051	    0.85432843304591	    0.77622885408100	    0.30894863847964	    0.79097418930143	    0.73537797983844	    0.30733012932800	    0.90204703018413	    0.69517697456582	    0.32210869364831	    0.83249300290706	    0.65634949005779	    0.31873399369913	    0.84599917568960	    0.42268652760098	    0.33166750576712	    0.91653270417941	    0.39556011081058	    0.33598586585002	    0.83348255601006	    0.35264958478826	    0.32823515666262	    0.89821843459022	    0.34030941472080	    0.33319096251123	    0.92438395228815	    0.12062790304219	    0.39614410463399	    0.75384945145781	    0.08479160287979	    0.44110334939998	    0.84198981646650	    0.06359324275042	    0.36130199255523	    1.04049378241882	    0.06671448298174	    0.37521164883203	    0.70539914679851	    0.77221970470502	    0.69155344943415	    0.77988171196454	    0.76695288193415	    0.67708481461446	    0.70201663849416	    0.67302448217556	    0.68191907640112	    0.77241127451991	    0.67141917322391	    0.67163300573610	    0.61307246188209	    0.36362013587224	    0.66337530150289	    0.68558580116888	    0.34075708709141	    0.65331537557101	    0.59931794691504	    0.29508872373103	    0.64826633154438	    0.67036155776637	    0.28420815990626	    0.63965755424713	    0.67336936687518	    0.09011839853951	    0.56526551314054	    0.49989329132234	    0.06698250895333	    0.53541364978376	    0.59234283050523	    0.02429389353949	    0.60681538622767	    0.79184558983880	    0.03279728253910	    0.57176487526826
40	   0.195	    0.80350731694980	    0.97834936059238	    0.62930924109467	    0.80454004304456	    0.97812114764496	    0.37951587169508	    0.60970774510152	    1.03846781605467	    0.51162562025372	    0.85242592830182	    0.77412260105769	    0.30789975507850	    0.78864366729841	    0.73385664150724	    0.30742775576548	    0.89946001178007	    0.69275190525963	    0.32151218382611	    0.82951310066514	    0.65458926065770	    0.31928077482689	    0.84955318419326	    0.41735065819850	    0.33144816715488	    0.92180864866869	    0.39501103656099	    0.33509141255729	    0.84176201617891	    0.34663689595484	    0.32792612757218	    0.90716991463068	    0.33862115343447	    0.33230140041517	    0.94939055592651	    0.12071248981637	    0.39490956876435	    0.78174012864643	    0.07334540115598	    0.44052258030392	    0.87082052354121	    0.05830216471160	    0.36038119182124	    1.06875098046677	    0.07463343567148	    0.37343550463061	    0.70165256594415	    0.77277697875870	    0.69142013601772	    0.77602528529052	    0.76645925800489	    0.67671939980677	    0.69683531072017	    0.67367452755680	    0.68164022161544	    0.76719862967144	    0.67103636490643	    0.67110504587305	    0.60317320540400	    0.36522978562120	    0.66301779250561	    0.67552946200368	    0.34162937720082	    0.65330087967316	    0.58884937846362	    0.29679222776986	    0.64792461745686	    0.65986930043021	    0.28522583494550	    0.63972719675174	    0.66154757300710	    0.09044953882480	    0.56531203967691	    0.48793025069165	    0.06921089913331	    0.53504832567683	    0.57984495256240	    0.02540820947139	    0.60653260777493	    0.77923353142397	    0.03263006509847	    0.57150894416189
41	   0.200	    0.80258088632843	    0.97764977090222	    0.62896329354324	    0.80450252993208	    0.97765313593886	    0.37920020551195	    0.60913277754909	    1.03785497284925	    0.51080827977733	    0.85001702434087	    0.77134994097325	    0.30672267894037	    0.78566690974791	    0.73193718953627	    0.30747016123819	    0.89606874998340	    0.68947894293545	    0.32069309436406	    0.82559650980210	    0.65224883603278	    0.31966688216809	    0.85302968497947	    0.41191396598212	    0.33122519097661	    0.92661996042981	    0.39431097848208	    0.33433248668868	    0.84984528241697	    0.34077612041378	    0.32766422010708	    0.91563738873224	    0.33705090264065	    0.33155691088251	    0.97334457631378	    0.12218515806360	    0.39414634927122	    0.80923325549278	    0.06349521708379	    0.43989237749783	    0.89908168028578	    0.05459614397521	    0.35970218968210	    1.09550415700515	    0.08415172985677	    0.37264280551549	    0.69808913762086	    0.77327100099407	    0.69132949737974	    0.77231522105862	    0.76590623127426	    0.67635881089972	    0.69178996340685	    0.67432205718565	    0.68141974982040	    0.76210303652620	    0.67061546077952	    0.67063858180972	    0.59340231810601	    0.36690022974737	    0.66265272594991	    0.66558482298090	    0.34254390794580	    0.65330698253965	    0.57848760300303	    0.29857253735439	    0.64759968129684	    0.64941819797271	    0.28628640401509	    0.63979258933306	    0.64976616291406	    0.09079917895716	    0.56535882042605	    0.47600692478341	    0.07150572764850	    0.53468993258330	    0.56738138170188	    0.02654602323783	    0.60625988933416	    0.76662553437926	    0.03251239769957	    0.57129464896617
42	   0.205	    0.80182982545907	    0.97681998901814	    0.62856163527854	    0.80459934981209	    0.97698095099591	    0.37890007173799	    0.60868838484059	    1.03694722077493	    0.50996000606383	    0.84724815528471	    0.76812139894697	    0.30549954051325	    0.78224017449259	    0.72975837839806	    0.30735437162893	    0.89207088608954	    0.68558948177217	    0.31962168370310	    0.82098613417050	    0.64949628598964	    0.31969153493753	    0.85639350919662	    0.40647860168782	    0.33094043764170	    0.93094697514152	    0.39351910714349	    0.33369082838416	    0.85764888231474	    0.33519443109033	    0.32740154184460	    0.92355007916633	    0.33564661239509	    0.33094965973740	    0.99586030920858	    0.12492841565017	    0.39385528953995	    0.83587599982490	    0.05534351008428	    0.43939369313871	    0.92627984918750	    0.05241505374465	    0.35938069325176	    1.12031947178071	    0.09502464666882	    0.37277151118726	    0.69473040797143	    0.77371708422847	    0.69127000505454	    0.76878337967694	    0.76528243993440	    0.67605280472380	    0.68694647350190	    0.67492832975986	    0.68124384714077	    0.75715591527480	    0.67014306908496	    0.67028289411187	    0.58380832162035	    0.36864346962203	    0.66228739134560	    0.65579461419150	    0.34349876428499	    0.65334600618723	    0.56826758685891	    0.30044240243152	    0.64730689315089	    0.63905352129700	    0.28738537030759	    0.63986780306893	    0.63800149302760	    0.09114711438189	    0.56537265498028	    0.46412242907385	    0.07387585266227	    0.53435717665597	    0.55495998325448	    0.02768532504481	    0.60597940595890	    0.75399433583636	    0.03243704520323	    0.57110867988240
